<svg width="32" height="32" viewBox="0 0 32 32" fill="none" xmlns="http://www.w3.org/2000/svg">
<path d="M15.1601 0.328817C15.6366 -0.109605 16.3634 -0.109606 16.8398 0.328817L20.1818 3.40395C20.4241 3.62694 20.743 3.74466 21.07 3.73182L25.579 3.5548C26.2219 3.52956 26.7786 4.00336 26.8658 4.64983L27.4769 9.18419C27.5212 9.51299 27.6909 9.81106 27.9495 10.0144L31.5158 12.8183C32.0243 13.2181 32.1505 13.944 31.8075 14.496L29.4018 18.3679C29.2273 18.6487 29.1684 18.9876 29.2377 19.3119L30.1925 23.7848C30.3287 24.4225 29.9653 25.0609 29.3527 25.2602L25.0559 26.6579C24.7443 26.7593 24.4843 26.9805 24.3318 27.2741L22.2284 31.323C21.9286 31.9003 21.2456 32.1524 20.65 31.9057L16.4726 30.1752C16.1697 30.0498 15.8303 30.0498 15.5274 30.1752L11.35 31.9057C10.7544 32.1524 10.0714 31.9003 9.77157 31.323L7.6682 27.2741C7.51567 26.9805 7.25571 26.7593 6.94413 26.6579L2.64731 25.2602C2.03471 25.0609 1.67132 24.4225 1.80746 23.7848L2.76234 19.3119C2.83158 18.9876 2.77265 18.6487 2.59821 18.3679L0.192518 14.496C-0.15046 13.944 -0.0242575 13.2181 0.484195 12.8183L4.05053 10.0144C4.30913 9.81106 4.47881 9.51299 4.52313 9.18419L5.13423 4.64983C5.22135 4.00336 5.77809 3.52956 6.42095 3.5548L10.93 3.73182C11.257 3.74466 11.5759 3.62694 11.8182 3.40395L15.1601 0.328817Z" fill="url(#paint0_linear_17_190)"/>
<path d="M15.8213 19.6272L14.9398 20.5212C14.7365 20.7275 14.4067 20.7275 14.2033 20.5212L10.5256 16.7912C10.3222 16.5849 10.3222 16.2505 10.5256 16.0442L11.5548 15.0004C11.7581 14.7941 12.0879 14.7941 12.2913 15.0004L14.5716 17.3131L19.5005 12.3142C19.7038 12.108 20.0336 12.108 20.237 12.3142L21.2662 13.3581C21.4696 13.5643 21.4696 13.8988 21.2662 14.105L15.8227 19.6258L15.8213 19.6272Z" fill="#FAFAFA"/>
<defs>
<linearGradient id="paint0_linear_17_190" x1="4" y1="-2" x2="24" y2="35.3333" gradientUnits="userSpaceOnUse">
<stop stop-color="#9225FF" stop-opacity="0.93"/>
<stop offset="1" stop-color="#3514BB" stop-opacity="0.94"/>
</linearGradient>
</defs>
</svg>
