<svg width="32" height="32" viewBox="0 0 32 32" fill="none" xmlns="http://www.w3.org/2000/svg">
<path d="M8.60095 0.912711C8.93905 0.167211 9.79738 -0.188321 10.5636 0.0997575L15.453 1.93804C15.8056 2.07063 16.1944 2.07063 16.547 1.93804L21.4364 0.0997573C22.2026 -0.188322 23.061 0.167211 23.3991 0.912711L25.5565 5.66989C25.7121 6.01299 25.987 6.2879 26.3301 6.4435L31.0873 8.60095C31.8328 8.93905 32.1883 9.79738 31.9002 10.5636L30.062 15.453C29.9294 15.8056 29.9294 16.1944 30.062 16.547L31.9002 21.4364C32.1883 22.2026 31.8328 23.061 31.0873 23.3991L26.3301 25.5565C25.987 25.7121 25.7121 25.987 25.5565 26.3301L23.399 31.0873C23.061 31.8328 22.2026 32.1883 21.4364 31.9002L16.547 30.062C16.1944 29.9294 15.8056 29.9294 15.453 30.062L10.5636 31.9002C9.79738 32.1883 8.93905 31.8328 8.60095 31.0873L6.4435 26.3301C6.2879 25.987 6.01299 25.7121 5.66989 25.5565L0.91271 23.399C0.16721 23.061 -0.188322 22.2026 0.0997574 21.4364L1.93804 16.547C2.07063 16.1944 2.07063 15.8056 1.93804 15.453L0.0997574 10.5636C-0.188322 9.79738 0.167211 8.93905 0.91271 8.60095L5.66989 6.4435C6.01299 6.2879 6.2879 6.01299 6.4435 5.66989L8.60095 0.912711Z" fill="#078614"/>
<path d="M15.2514 19.7862L14.3118 20.7257C14.095 20.9425 13.7435 20.9425 13.5268 20.7257L9.60639 16.8054C9.38959 16.5886 9.38959 16.2371 9.60639 16.0203L10.7035 14.9232C10.9203 14.7064 11.2718 14.7064 11.4886 14.9232L13.9193 17.3539L19.1733 12.0999C19.3901 11.8831 19.7416 11.8831 19.9584 12.0999L21.0555 13.197C21.2723 13.4138 21.2723 13.7653 21.0555 13.9821L15.2529 19.7847L15.2514 19.7862Z" fill="#FAFAFA"/>
</svg>
