<svg width="32" height="32" viewBox="0 0 32 32" fill="none" xmlns="http://www.w3.org/2000/svg">
<path d="M15.0283 0.410904C15.5655 -0.136968 16.4345 -0.136968 16.9717 0.410905L21.1741 4.69679C21.3938 4.92088 21.6811 5.06246 21.9892 5.09856L27.8834 5.78896C28.6369 5.87722 29.1787 6.57255 29.0951 7.34399L28.4412 13.3788C28.407 13.6944 28.478 14.0125 28.6425 14.2816L31.7901 19.4284C32.1925 20.0863 31.9991 20.9534 31.3577 21.3675L26.3399 24.6069C26.0775 24.7763 25.8787 25.0314 25.7758 25.3308L23.8065 31.0584C23.5548 31.7906 22.7718 32.1764 22.0556 31.9214L16.4524 29.926C16.1594 29.8217 15.8406 29.8217 15.5476 29.926L9.94443 31.9214C9.22817 32.1764 8.44524 31.7906 8.19351 31.0584L6.22425 25.3308C6.12128 25.0314 5.9225 24.7763 5.66014 24.6069L0.642337 21.3675C0.000901933 20.9534 -0.192464 20.0863 0.209895 19.4284L3.35746 14.2816C3.52203 14.0125 3.59298 13.6944 3.55879 13.3788L2.90488 7.34399C2.82129 6.57255 3.36309 5.87722 4.11655 5.78896L10.0108 5.09856C10.3189 5.06246 10.6062 4.92088 10.8259 4.69679L15.0283 0.410904Z" fill="url(#paint0_linear_17_191)"/>
<path d="M15.8184 20.0113L14.9222 20.9285C14.7154 21.1401 14.3802 21.1401 14.1734 20.9285L10.4344 17.1018C10.2276 16.8902 10.2276 16.5471 10.4344 16.3355L11.4808 15.2646C11.6875 15.053 12.0228 15.053 12.2295 15.2646L14.5478 17.6373L19.5587 12.5088C19.7655 12.2972 20.1007 12.2972 20.3075 12.5088L21.3539 13.5797C21.5606 13.7913 21.5606 14.1344 21.3539 14.346L15.8197 20.0099L15.8184 20.0113Z" fill="#FAFAFA"/>
<defs>
<linearGradient id="paint0_linear_17_191" x1="10.1857" y1="-5.50527e-08" x2="21.8143" y2="32" gradientUnits="userSpaceOnUse">
<stop stop-color="#FB7260"/>
<stop offset="1" stop-color="#CD2B52"/>
</linearGradient>
</defs>
</svg>
